0
SECTION
2
HEADER
9
$INSUNITS
70
4
9
$ACADVER
1
AC1014
9
$HANDSEED
5
FFFF
0
ENDSEC
0
SECTION
2
TABLES
0
TABLE
2
VPORT
5
8
100
AcDbSymbolTable
0
ENDTAB
0
TABLE
2
LTYPE
5
5
100
AcDbSymbolTable
0
LTYPE
5
14
100
AcDbSymbolTableRecord
100
AcDbLinetypeTableRecord
2
BYBLOCK
70
0
0
LTYPE
5
15
100
AcDbSymbolTableRecord
100
AcDbLinetypeTableRecord
2
BYLAYER
70
0
0
ENDTAB
0
TABLE
2
LAYER
5
2
100
AcDbSymbolTable
70
2
0
LAYER
5
50
100
AcDbSymbolTableRecord
100
AcDbLayerTableRecord
2
0
70
0
6
CONTINUOUS
0
ENDTAB
0
TABLE
2
STYLE
5
3
100
AcDbSymbolTable
70
1
0
STYLE
5
11
100
AcDbSymbolTableRecord
100
AcDbTextStyleTableRecord
2
STANDARD
70
0
0
ENDTAB
0
TABLE
2
VIEW
5
6
100
AcDbSymbolTable
70
0
0
ENDTAB
0
TABLE
2
UCS
5
7
100
AcDbSymbolTable
70
0
0
ENDTAB
0
TABLE
2
APPID
5
9
100
AcDbSymbolTable
70
2
0
APPID
5
12
100
AcDbSymbolTableRecord
100
AcDbRegAppTableRecord
2
ACAD
70
0
0
ENDTAB
0
TABLE
2
DIMSTYLE
5
A
100
AcDbSymbolTable
70
1
0
ENDTAB
0
TABLE
2
BLOCK_RECORD
5
1
100
AcDbSymbolTable
70
1
0
BLOCK_RECORD
5
1F
100
AcDbSymbolTableRecord
100
AcDbBlockTableRecord
2
*MODEL_SPACE
0
BLOCK_RECORD
5
1B
100
AcDbSymbolTableRecord
100
AcDbBlockTableRecord
2
*PAPER_SPACE
0
ENDTAB
0
ENDSEC
0
SECTION
2
BLOCKS
0
BLOCK
5
20
100
AcDbEntity
100
AcDbBlockBegin
2
*MODEL_SPACE
0
ENDBLK
5
21
100
AcDbEntity
100
AcDbBlockEnd
0
BLOCK
5
1C
100
AcDbEntity
100
AcDbBlockBegin
2
*PAPER_SPACE
0
ENDBLK
5
1D
100
AcDbEntity
100
AcDbBlockEnd
0
ENDSEC
0
SECTION
2
ENTITIES
0
LINE
5
100
100
AcDbEntity
8
0
100
AcDbLine
10
86.500001549720764
20
49.370000436902046
30
0
11
86.500001549720764
21
-8.0100008100271225
31
0
0
SPLINE
5
101
100
AcDbEntity
8
0
100
AcDbSpline
70
1064
71
3
72
25
73
21
74
0
42
0.000000001
43
0.0000000001
44
0.0000000001
40
0
40
0
40
0
40
0
40
0.77273248061875222
40
0.96602872594688094
40
1.1591466121335363
40
1.5454357189047876
40
2.3160192823628902
40
2.7024131392388031
40
3.0889543158182589
40
3.861988109435166
40
4.6352703066976009
40
5.4086099604121314
40
6.181836841370357
40
6.9539635230025727
40
7.7260304712157186
40
8.4988184620364411
40
9.2716277382163756
40
10.04435059660416
40
10.816220894657553
40
12.358123361404253
40
12.358123361404253
40
12.358123361404253
40
12.358123361404253
10
86.500001549720764
20
-8.0100008100271225
30
0
10
84.323271142738818
20
-9.3977052071711249
30
0
10
81.602039468741069
20
-11.132538858385676
30
0
10
78.066672885653034
20
-12.71019332693966
30
0
10
75.596087419829047
20
-13.456950537583721
30
0
10
71.135961239498457
20
-14.183208189063919
30
0
10
65.921230370474262
20
-13.786785331455667
30
0
10
60.959396466533406
20
-12.394813097010719
30
0
10
56.179143162639775
20
-10.450317357127714
30
0
10
50.433309851726079
20
-7.5204989616991185
30
0
10
43.783955970877258
20
-3.5587816063298696
30
0
10
37.493471009520583
20
0.94551783994575533
30
0
10
31.129755348807393
20
5.3281474482013724
30
0
10
24.234747266650437
20
8.9335344068267055
30
0
10
16.656523997663154
20
10.729084476252289
30
0
10
8.9358454674193215
20
11.304482046543022
30
0
10
1.1957680425137225
20
10.960506115845007
30
0
10
-6.4367023126935337
20
9.6578326977351416
30
0
10
-16.219580855452872
20
6.0985680481044211
30
0
10
-22.088765731219141
20
0.95360983301851165
30
0
10
-26.000001430511475
20
-2.4749998748302469
30
0
0
LINE
5
102
100
AcDbEntity
8
0
100
AcDbLine
10
-26.000001430511475
20
54.907501414418221
30
0
11
-26.000001430511475
21
-2.4749998748302469
31
0
0
SPLINE
5
103
100
AcDbEntity
8
0
100
AcDbSpline
70
1064
71
3
72
24
73
20
74
0
42
0.000000001
43
0.0000000001
44
0.0000000001
40
0
40
0
40
0
40
0
40
0.7737469287199058
40
1.5464706138064099
40
2.3188583146218473
40
3.0920247095838715
40
3.8654495414561594
40
4.6387703373837619
40
5.4113227004407909
40
6.183956775781283
40
6.957812694041726
40
7.7316638281100394
40
8.1185243215901011
40
8.5055074796067913
40
9.2791119414019771
40
10.052110688978383
40
10.822113821388852
40
11.592323036571509
40
12.365615438087449
40
12.365615438087449
40
12.365615438087449
40
12.365615438087449
10
-26.000001430511475
20
54.907501414418221
30
0
10
-24.074733500657779
20
56.624735157399911
30
0
10
-20.226743716519398
20
60.056931683144455
30
0
10
-13.742609508002076
20
64.364577284772864
30
0
10
-6.4230708398766012
20
67.040216525154349
30
0
10
1.2239641489929709
20
68.33253391039591
30
0
10
8.9660948870556751
20
68.687248795404784
30
0
10
16.694958480152092
20
68.101153093782216
30
0
10
24.266230700918996
20
66.283284103606718
30
0
10
31.19868477774995
20
62.72127385732243
30
0
10
37.423692351210669
20
58.123504035898449
30
0
10
42.822040074153129
20
54.59381199767266
30
0
10
47.16890651086203
20
51.813762597310614
30
0
10
51.642689185171349
20
49.244463398081926
30
0
10
57.390233043879491
20
46.306802852904198
30
0
10
64.652422437352271
20
43.620697574840257
30
0
10
72.489749373176949
20
42.731434325014561
30
0
10
79.998751353832148
20
45.194555077731948
30
0
10
84.330034199447169
20
47.976333091507406
30
0
10
86.50000154972075
20
49.370000436902046
30
0
0
SPLINE
5
104
100
AcDbEntity
8
0
100
AcDbSpline
70
1064
71
3
72
24
73
20
74
0
42
0.000000001
43
0.0000000001
44
0.0000000001
40
0
40
0
40
0
40
0
40
0.7737469287199058
40
1.5464706138064099
40
2.3188583146218473
40
3.0920247095838715
40
3.8654495414561594
40
4.6387703373837619
40
5.4113227004407909
40
6.183956775781283
40
6.957812694041726
40
7.7316638281100394
40
8.1185243215901011
40
8.5055074796067913
40
9.2791119414019771
40
10.052110688978383
40
10.822113821388852
40
11.592323036571509
40
12.365615438087449
40
12.365615438087449
40
12.365615438087449
40
12.365615438087449
10
-26.000001430511475
20
45.374168081084889
30
0
10
-24.074733500657779
20
47.09140182406658
30
0
10
-20.226743716519398
20
50.523598349811124
30
0
10
-13.742609508002076
20
54.831243951439532
30
0
10
-6.4230708398766012
20
57.506883191821018
30
0
10
1.2239641489929709
20
58.799200577062578
30
0
10
8.9660948870556751
20
59.153915462071453
30
0
10
16.694958480152092
20
58.567819760448884
30
0
10
24.266230700918996
20
56.749950770273394
30
0
10
31.19868477774995
20
53.187940523989099
30
0
10
37.423692351210669
20
48.590170702565118
30
0
10
42.822040074153129
20
45.060478664339328
30
0
10
47.16890651086203
20
42.280429263977283
30
0
10
51.642689185171349
20
39.711130064748595
30
0
10
57.390233043879491
20
36.77346951957086
30
0
10
64.652422437352271
20
34.087364241506918
30
0
10
72.489749373176949
20
33.198100991681223
30
0
10
79.998751353832148
20
35.66122174439861
30
0
10
84.330034199447169
20
38.442999758174075
30
0
10
86.50000154972075
20
39.836667103568708
30
0
0
SPLINE
5
105
100
AcDbEntity
8
0
100
AcDbSpline
70
1064
71
3
72
24
73
20
74
0
42
0.000000001
43
0.0000000001
44
0.0000000001
40
0
40
0
40
0
40
0
40
0.7737469287199058
40
1.5464706138064099
40
2.3188583146218473
40
3.0920247095838715
40
3.8654495414561594
40
4.6387703373837619
40
5.4113227004407909
40
6.183956775781283
40
6.957812694041726
40
7.7316638281100394
40
8.1185243215901011
40
8.5055074796067913
40
9.2791119414019771
40
10.052110688978383
40
10.822113821388852
40
11.592323036571509
40
12.365615438087449
40
12.365615438087449
40
12.365615438087449
40
12.365615438087449
10
-26.000001430511475
20
35.840834747751551
30
0
10
-24.074733500657779
20
37.558068490733241
30
0
10
-20.226743716519398
20
40.990265016477785
30
0
10
-13.742609508002076
20
45.297910618106194
30
0
10
-6.4230708398766012
20
47.973549858487672
30
0
10
1.2239641489929709
20
49.26586724372924
30
0
10
8.9660948870556751
20
49.620582128738107
30
0
10
16.694958480152092
20
49.034486427115539
30
0
10
24.266230700918996
20
47.216617436940055
30
0
10
31.19868477774995
20
43.654607190655753
30
0
10
37.423692351210669
20
39.056837369231772
30
0
10
42.822040074153129
20
35.52714533100599
30
0
10
47.16890651086203
20
32.747095930643944
30
0
10
51.642689185171349
20
30.177796731415256
30
0
10
57.390233043879491
20
27.240136186237525
30
0
10
64.652422437352271
20
24.554030908173587
30
0
10
72.489749373176949
20
23.664767658347891
30
0
10
79.998751353832148
20
26.127888411065278
30
0
10
84.330034199447169
20
28.909666424840736
30
0
10
86.50000154972075
20
30.303333770235376
30
0
0
SPLINE
5
106
100
AcDbEntity
8
0
100
AcDbSpline
70
1064
71
3
72
24
73
20
74
0
42
0.000000001
43
0.0000000001
44
0.0000000001
40
0
40
0
40
0
40
0
40
0.7737469287199058
40
1.5464706138064099
40
2.3188583146218473
40
3.0920247095838715
40
3.8654495414561594
40
4.6387703373837619
40
5.4113227004407909
40
6.183956775781283
40
6.957812694041726
40
7.7316638281100394
40
8.1185243215901011
40
8.5055074796067913
40
9.2791119414019771
40
10.052110688978383
40
10.822113821388852
40
11.592323036571509
40
12.365615438087449
40
12.365615438087449
40
12.365615438087449
40
12.365615438087449
10
-26.000001430511475
20
26.307501414418219
30
0
10
-24.074733500657779
20
28.02473515739991
30
0
10
-20.226743716519398
20
31.456931683144454
30
0
10
-13.742609508002076
20
35.764577284772862
30
0
10
-6.4230708398766012
20
38.440216525154341
30
0
10
1.2239641489929709
20
39.732533910395908
30
0
10
8.9660948870556751
20
40.087248795404776
30
0
10
16.694958480152092
20
39.501153093782207
30
0
10
24.266230700918996
20
37.683284103606724
30
0
10
31.19868477774995
20
34.121273857322421
30
0
10
37.423692351210669
20
29.523504035898441
30
0
10
42.822040074153129
20
25.993811997672658
30
0
10
47.16890651086203
20
23.213762597310613
30
0
10
51.642689185171349
20
20.644463398081925
30
0
10
57.390233043879491
20
17.706802852904193
30
0
10
64.652422437352271
20
15.020697574840254
30
0
10
72.489749373176949
20
14.131434325014558
30
0
10
79.998751353832148
20
16.594555077731947
30
0
10
84.330034199447169
20
19.376333091507405
30
0
10
86.50000154972075
20
20.770000436902045
30
0
0
SPLINE
5
107
100
AcDbEntity
8
0
100
AcDbSpline
70
1064
71
3
72
24
73
20
74
0
42
0.000000001
43
0.0000000001
44
0.0000000001
40
0
40
0
40
0
40
0
40
0.7737469287199058
40
1.5464706138064099
40
2.3188583146218473
40
3.0920247095838715
40
3.8654495414561594
40
4.6387703373837619
40
5.4113227004407909
40
6.183956775781283
40
6.957812694041726
40
7.7316638281100394
40
8.1185243215901011
40
8.5055074796067913
40
9.2791119414019771
40
10.052110688978383
40
10.822113821388852
40
11.592323036571509
40
12.365615438087449
40
12.365615438087449
40
12.365615438087449
40
12.365615438087449
10
-26.000001430511475
20
16.774168081084881
30
0
10
-24.074733500657779
20
18.491401824066575
30
0
10
-20.226743716519398
20
21.923598349811119
30
0
10
-13.742609508002076
20
26.231243951439524
30
0
10
-6.4230708398766012
20
28.906883191821006
30
0
10
1.2239641489929709
20
30.19920057706257
30
0
10
8.9660948870556751
20
30.553915462071441
30
0
10
16.694958480152092
20
29.967819760448876
30
0
10
24.266230700918996
20
28.149950770273385
30
0
10
31.19868477774995
20
24.58794052398909
30
0
10
37.423692351210669
20
19.990170702565106
30
0
10
42.822040074153129
20
16.460478664339323
30
0
10
47.16890651086203
20
13.680429263977278
30
0
10
51.642689185171349
20
11.11113006474859
30
0
10
57.390233043879491
20
8.1734695195708582
30
0
10
64.652422437352271
20
5.4873642415069179
30
0
10
72.489749373176949
20
4.5981009916812221
30
0
10
79.998751353832148
20
7.0612217443986092
30
0
10
84.330034199447169
20
9.84299975817407
30
0
10
86.50000154972075
20
11.236667103568706
30
0
0
SPLINE
5
108
100
AcDbEntity
8
0
100
AcDbSpline
70
1064
71
3
72
24
73
20
74
0
42
0.000000001
43
0.0000000001
44
0.0000000001
40
0
40
0
40
0
40
0
40
0.7737469287199058
40
1.5464706138064099
40
2.3188583146218473
40
3.0920247095838715
40
3.8654495414561594
40
4.6387703373837619
40
5.4113227004407909
40
6.183956775781283
40
6.957812694041726
40
7.7316638281100394
40
8.1185243215901011
40
8.5055074796067913
40
9.2791119414019771
40
10.052110688978383
40
10.822113821388852
40
11.592323036571509
40
12.365615438087449
40
12.365615438087449
40
12.365615438087449
40
12.365615438087449
10
-26.000001430511475
20
7.2408347477515456
30
0
10
-24.074733500657779
20
8.9580684907332397
30
0
10
-20.226743716519398
20
12.390265016477784
30
0
10
-13.742609508002076
20
16.697910618106189
30
0
10
-6.4230708398766012
20
19.373549858487671
30
0
10
1.2239641489929709
20
20.665867243729235
30
0
10
8.9660948870556751
20
21.020582128738106
30
0
10
16.694958480152092
20
20.434486427115537
30
0
10
24.266230700918996
20
18.616617436940047
30
0
10
31.19868477774995
20
15.054607190655753
30
0
10
37.423692351210669
20
10.456837369231771
30
0
10
42.822040074153129
20
6.9271453310059883
30
0
10
47.16890651086203
20
4.1470959306439426
30
0
10
51.642689185171349
20
1.577796731415253
30
0
10
57.390233043879491
20
-1.3598638137624786
30
0
10
64.652422437352271
20
-4.045969091826418
30
0
10
72.489749373176949
20
-4.9352323416521138
30
0
10
79.998751353832148
20
-2.4721115889347267
30
0
10
84.330034199447169
20
0.30966642484073326
30
0
10
86.50000154972075
20
1.7033337702353712
30
0
0
SPLINE
5
109
100
AcDbEntity
8
0
100
AcDbSpline
70
1064
71
3
72
24
73
20
74
0
42
0.000000001
43
0.0000000001
44
0.0000000001
40
0
40
0
40
0
40
0
40
0.7737469287199058
40
1.5464706138064099
40
2.3188583146218473
40
3.0920247095838715
40
3.8654495414561594
40
4.6387703373837619
40
5.4113227004407909
40
6.183956775781283
40
6.957812694041726
40
7.7316638281100394
40
8.1185243215901011
40
8.5055074796067913
40
9.2791119414019771
40
10.052110688978383
40
10.822113821388852
40
11.592323036571509
40
12.365615438087449
40
12.365615438087449
40
12.365615438087449
40
12.365615438087449
10
-26.000001430511475
20
-2.2924985855817859
30
0
10
-24.074733500657779
20
-0.5752648426000917
30
0
10
-20.226743716519398
20
2.8569316831444524
30
0
10
-13.742609508002076
20
7.1645772847728573
30
0
10
-6.4230708398766012
20
9.8402165251543394
30
0
10
1.2239641489929709
20
11.132533910395903
30
0
10
8.9660948870556751
20
11.487248795404774
30
0
10
16.694958480152092
20
10.901153093782208
30
0
10
24.266230700918996
20
9.0832841036067169
30
0
10
31.19868477774995
20
5.5212738573224218
30
0
10
37.423692351210669
20
0.92350403589843921
30
0
10
42.822040074153129
20
-2.6061880023273432
30
0
10
47.16890651086203
20
-5.3862374026893889
30
0
10
51.642689185171349
20
-7.9555366019180784
30
0
10
57.390233043879491
20
-10.89319714709581
30
0
10
64.652422437352271
20
-13.579302425159749
30
0
10
72.489749373176949
20
-14.468565674985445
30
0
10
79.998751353832148
20
-12.005444922268058
30
0
10
84.330034199447169
20
-9.2236669084925982
30
0
10
86.50000154972075
20
-7.8299995630979602
30
0
0
CIRCLE
5
110
100
AcDbEntity
8
0
100
AcDbCircle
10
-22.543948381770129
20
52.898547646438075
30
0
40
1.4999999999999969
0
CIRCLE
5
111
100
AcDbEntity
8
0
100
AcDbCircle
10
-22.543948381770129
20
52.898547646438075
30
0
40
2.4999999999999951
0
CIRCLE
5
112
100
AcDbEntity
8
0
100
AcDbCircle
10
83.033235499488924
20
42.56953071553086
30
0
40
1.4999999999999969
0
CIRCLE
5
113
100
AcDbEntity
8
0
100
AcDbCircle
10
82.736208621702318
20
-5.3229485839075785
30
0
40
1.4999999999999969
0
CIRCLE
5
114
100
AcDbEntity
8
0
100
AcDbCircle
10
-22.450381650632707
20
5.3146400051916274
30
0
40
1.4999999999999969
0
CIRCLE
5
115
100
AcDbEntity
8
0
100
AcDbCircle
10
28.349553082697184
20
11.635369211642654
30
0
40
1.4999999999999969
0
CIRCLE
5
116
100
AcDbEntity
8
0
100
AcDbCircle
10
28.349553082697184
20
58.635369211642654
30
0
40
1.4999999999999969
0
CIRCLE
5
117
100
AcDbEntity
8
0
100
AcDbCircle
10
28.349553082697184
20
58.635369211642654
30
0
40
2.4999999999999991
0
CIRCLE
5
118
100
AcDbEntity
8
0
100
AcDbCircle
10
83.033235499488924
20
42.56953071553086
30
0
40
2.5000000149011647
0
CIRCLE
5
119
100
AcDbEntity
8
0
100
AcDbCircle
10
82.736208621702318
20
-5.3229485839075785
30
0
40
2.5000000149011647
0
CIRCLE
5
120
100
AcDbEntity
8
0
100
AcDbCircle
10
28.349553082697184
20
11.635369211642654
30
0
40
2.5000000149011603
0
CIRCLE
5
121
100
AcDbEntity
8
0
100
AcDbCircle
10
-22.450381650632707
20
5.3146400051916274
30
0
40
2.5000000149011559
0
ENDSEC
0
SECTION
2
OBJECTS
0
DICTIONARY
5
C
100
AcDbDictionary
3
ACAD_GROUP
350
D
3
ACAD_MLINESTYLE
350
17
0
DICTIONARY
5
D
100
AcDbDictionary
0
DICTIONARY
5
1A
330
C
100
AcDbDictionary
0
DICTIONARY
5
17
100
AcDbDictionary
0
ENDSEC
0
EOF
