M48
;DRILL file {KiCad (5.0.0-rc2-206-gf10aa6c85)} date 07/01/18 00:32:33
;FORMAT={-:-/ absolute / metric / decimal}
FMAT,2
METRIC,TZ
T1C0.100
T2C0.600
T3C1.150
T4C0.550
T5C0.900
%
G90
G05
M71
T1
X47.6Y-125.575
X47.65Y-123.325
X47.75Y-73.3
X49.95Y-73.5
X51.65Y-114.5
X51.65Y-117.
X53.8Y-117.
X53.85Y-114.5
X55.2Y-96.586
X55.2Y-103.6
X55.2Y-106.75
X57.139Y-94.267
X58.2Y-103.5
X58.2Y-106.85
X59.4Y-95.2
X59.45Y-97.
X63.1Y-97.6
X63.15Y-95.75
X63.8Y-79.8
X63.887Y-73.737
X65.513Y-75.363
X66.65Y-80.75
X70.45Y-118.25
X72.75Y-118.35
X73.25Y-71.4
X73.75Y-109.5
X75.816Y-62.266
X76.35Y-57.15
X77.559Y-64.059
X84.15Y-65.65
X84.4Y-71.85
X84.4Y-71.85
X107.05Y-91.45
T4
X35.75Y-81.7
X35.75Y-83.6
X35.65Y-74.5
X35.65Y-76.4
X35.7Y-88.4
X35.7Y-90.3
X82.6Y-32.5
X82.6Y-34.4
T5
X42.2Y-68.37
X45.2Y-68.37
T2
X40.813Y-118.799G85X40.813Y-118.799
G05
X40.813Y-123.799G85X40.813Y-123.799
G05
T3
X38.113Y-117.799G85X38.113Y-117.799
G05
X38.113Y-124.799G85X38.113Y-124.799
G05
T0
M30
