M48
;DRILL file {KiCad (5.0.0-rc3-dev-5-g0013e0cad)} date 07/11/18 13:47:34
;FORMAT={-:-/ absolute / metric / decimal}
FMAT,2
METRIC,TZ
T1C0.300
T2C0.400
T3C0.600
T4C1.150
T5C0.550
T6C0.900
T7C3.000
%
G90
G05
M71
T1
X136.3Y-94.6
X136.3Y-95.45
X136.3Y-96.3
X137.15Y-94.6
X137.15Y-95.45
X137.15Y-96.3
X138.Y-94.6
X138.Y-95.45
X138.Y-96.3
X138.85Y-94.6
X138.85Y-95.45
X138.85Y-96.3
T2
X66.9Y-103.9
X77.15Y-101.15
X84.45Y-83.15
X84.7Y-73.15
X84.8Y-71.65
X85.1Y-97.4
X85.8Y-82.4
X86.8Y-90.4
X86.95Y-73.15
X87.7Y-93.1
X90.Y-67.65
X90.Y-95.75
X91.35Y-75.9
X91.9Y-77.4
X91.95Y-97.15
X92.Y-67.8
X92.7Y-83.15
X93.25Y-81.8
X93.65Y-69.85
X95.15Y-61.1
X95.305Y-74.795
X96.75Y-60.25
X97.35Y-69.475
X97.8Y-84.
X98.723Y-92.673
X98.9Y-83.65
X99.75Y-74.5
X101.45Y-60.3
X101.45Y-67.65
X101.85Y-77.2
X101.95Y-62.85
X103.65Y-68.3
X104.4Y-90.
X105.45Y-89.
X105.65Y-91.85
X105.75Y-60.35
X106.85Y-90.4
X106.95Y-70.65
X108.5Y-62.5
X110.35Y-83.3
X110.5Y-74.15
X110.55Y-98.
X110.564Y-96.96
X110.85Y-80.9
X111.05Y-88.25
X111.7Y-68.7
X112.4Y-81.15
X113.4Y-90.45
X113.745Y-68.406
X113.8Y-82.35
X114.3Y-93.25
X114.987Y-89.087
X115.1Y-87.525
X115.27Y-67.78
X115.3Y-93.8
X116.Y-88.975
X116.05Y-89.975
X116.35Y-101.65
X116.4Y-79.55
X116.6Y-68.05
X117.Y-87.455
X117.65Y-69.
X117.703Y-75.953
X118.35Y-91.7
X119.Y-67.55
X119.45Y-69.85
X119.85Y-74.1
X120.8Y-83.8
X121.05Y-88.05
X121.35Y-80.1
X121.613Y-75.65
X122.238Y-83.912
X122.25Y-105.4
X122.579Y-75.908
X123.35Y-90.95
X123.65Y-87.6
X123.9Y-79.4
X123.9Y-101.35
X124.Y-90.
X124.345Y-73.706
X124.85Y-71.1
X124.9Y-75.906
X125.75Y-72.3
X126.05Y-74.75
X126.257Y-73.162
X126.4Y-97.151
X126.55Y-102.
X126.561Y-96.164
X128.578Y-69.822
X129.038Y-93.688
X129.05Y-97.8
X129.25Y-84.55
X129.28Y-96.092
X129.5Y-76.3
X130.796Y-72.001
X131.6Y-92.55
X131.647Y-72.853
X131.9Y-78.15
X133.Y-76.3
X134.6Y-74.4
X135.9Y-88.45
X138.1Y-118.05
X138.4Y-76.75
X138.4Y-79.2
X139.2Y-87.6
X141.Y-85.9
X142.05Y-100.15
X142.35Y-92.2
X143.95Y-102.9
X144.6Y-118.
X145.05Y-102.5
X148.701Y-75.249
X152.7Y-105.8
X154.45Y-80.15
X156.5Y-83.11
X160.4Y-85.6
T5
X81.6Y-57.8
X83.5Y-57.8
X93.1Y-57.65
X95.Y-57.65
T6
X145.005Y-95.225
X145.005Y-98.225
T7
X111.1Y-102.05
X111.1Y-60.3
X159.7Y-74.6
X159.45Y-117.1
X65.9Y-65.4
X66.Y-107.7
T3
X158.387Y-102.199G85X158.387Y-102.199
G05
X158.387Y-107.199G85X158.387Y-107.199
G05
T4
X161.087Y-101.199G85X161.087Y-101.199
G05
X161.087Y-108.199G85X161.087Y-108.199
G05
T0
M30
