G04 #@! TF.GenerationSoftware,KiCad,Pcbnew,(5.0.0-rc3-dev-5-g0013e0cad)*
G04 #@! TF.CreationDate,2018-07-11T14:46:06+01:00*
G04 #@! TF.ProjectId,Pride Badge,50726964652042616467652E6B696361,rev?*
G04 #@! TF.SameCoordinates,Original*
G04 #@! TF.FileFunction,Soldermask,Bot*
G04 #@! TF.FilePolarity,Negative*
%FSLAX46Y46*%
G04 Gerber Fmt 4.6, Leading zero omitted, Abs format (unit mm)*
G04 Created by KiCad (PCBNEW (5.0.0-rc3-dev-5-g0013e0cad)) date 07/11/18 14:46:06*
%MOMM*%
%LPD*%
G01*
G04 APERTURE LIST*
%ADD10R,1.750000X0.800000*%
%ADD11O,1.400000X1.400000*%
%ADD12O,1.950000X1.950000*%
%ADD13C,3.000200*%
%ADD14R,3.450000X1.670000*%
%ADD15R,1.250000X1.050000*%
%ADD16R,1.650000X1.400000*%
%ADD17R,1.400000X1.650000*%
%ADD18R,2.900000X2.200000*%
%ADD19R,2.100000X3.700000*%
%ADD20R,1.200000X1.300000*%
%ADD21R,1.540000X2.430000*%
%ADD22R,2.178000X1.416000*%
%ADD23R,2.600000X2.950000*%
%ADD24R,1.700000X1.100000*%
%ADD25R,1.100000X1.700000*%
%ADD26C,0.950000*%
%ADD27R,1.400000X1.900000*%
%ADD28R,1.050000X1.460000*%
%ADD29R,1.900000X2.600000*%
%ADD30R,4.200000X2.600000*%
%ADD31R,1.000000X2.400000*%
%ADD32R,0.790000X1.890000*%
%ADD33R,3.700000X2.810000*%
%ADD34R,0.440000X1.740000*%
%ADD35R,0.740000X2.140000*%
%ADD36R,1.640000X0.690000*%
%ADD37R,2.900000X1.600000*%
%ADD38R,3.800000X1.900000*%
%ADD39R,3.900000X1.400000*%
%ADD40R,1.600000X1.000000*%
%ADD41R,2.400000X2.100000*%
%ADD42R,1.200000X1.400000*%
%ADD43R,1.900000X1.100000*%
%ADD44C,1.300000*%
%ADD45C,1.400000*%
%ADD46R,1.600000X1.600000*%
G04 APERTURE END LIST*
D10*
G04 #@! TO.C,J1*
X158387460Y-103399100D03*
X158387460Y-104049100D03*
X158387460Y-104699100D03*
X158387460Y-105349100D03*
X158387460Y-105999100D03*
D11*
X158387460Y-102199100D03*
X158387460Y-107199100D03*
D12*
X161087460Y-101199100D03*
X161087460Y-108199100D03*
G04 #@! TD*
D13*
G04 #@! TO.C,REF\002A\002A*
X111100000Y-102050000D03*
G04 #@! TD*
D14*
G04 #@! TO.C,J3*
X160425000Y-83860000D03*
X157375000Y-81320000D03*
X157375000Y-86400000D03*
X160425000Y-88940000D03*
X157375000Y-91480000D03*
G04 #@! TD*
D15*
G04 #@! TO.C,D2*
X158475000Y-96175000D03*
X159725000Y-96175000D03*
X159725000Y-97025000D03*
X158475000Y-97025000D03*
G04 #@! TD*
D16*
G04 #@! TO.C,C1*
X147550000Y-90700000D03*
X147550000Y-88700000D03*
G04 #@! TD*
G04 #@! TO.C,C2*
X145550000Y-88650000D03*
X145550000Y-90650000D03*
G04 #@! TD*
G04 #@! TO.C,C3*
X143448246Y-88687992D03*
X143448246Y-90687992D03*
G04 #@! TD*
D17*
G04 #@! TO.C,C4*
X138300000Y-105550000D03*
X136300000Y-105550000D03*
G04 #@! TD*
G04 #@! TO.C,C5*
X136900000Y-115600000D03*
X138900000Y-115600000D03*
G04 #@! TD*
G04 #@! TO.C,C6*
X146150000Y-112250000D03*
X148150000Y-112250000D03*
G04 #@! TD*
G04 #@! TO.C,C7*
X152750000Y-112250000D03*
X150750000Y-112250000D03*
G04 #@! TD*
D16*
G04 #@! TO.C,C8*
X139650000Y-84300000D03*
X139650000Y-86300000D03*
G04 #@! TD*
D17*
G04 #@! TO.C,C9*
X113850000Y-77350000D03*
X115850000Y-77350000D03*
G04 #@! TD*
G04 #@! TO.C,C10*
X113837992Y-71750000D03*
X115837992Y-71750000D03*
G04 #@! TD*
G04 #@! TO.C,C11*
X113837992Y-75451754D03*
X115837992Y-75451754D03*
G04 #@! TD*
G04 #@! TO.C,C12*
X113837992Y-73600000D03*
X115837992Y-73600000D03*
G04 #@! TD*
G04 #@! TO.C,C13*
X115850000Y-69900000D03*
X113850000Y-69900000D03*
G04 #@! TD*
G04 #@! TO.C,C14*
X122600000Y-99800000D03*
X120600000Y-99800000D03*
G04 #@! TD*
G04 #@! TO.C,C15*
X120600000Y-97900000D03*
X122600000Y-97900000D03*
G04 #@! TD*
D16*
G04 #@! TO.C,C16*
X88600000Y-97800000D03*
X88600000Y-99800000D03*
G04 #@! TD*
G04 #@! TO.C,C17*
X97250000Y-97550000D03*
X97250000Y-99550000D03*
G04 #@! TD*
D18*
G04 #@! TO.C,D1*
X131500000Y-113100000D03*
X127500000Y-113100000D03*
G04 #@! TD*
D19*
G04 #@! TO.C,D3*
X94898246Y-87837992D03*
X94898246Y-82337992D03*
G04 #@! TD*
D20*
G04 #@! TO.C,D4*
X72100000Y-93900000D03*
X74200000Y-93900000D03*
G04 #@! TD*
G04 #@! TO.C,D5*
X74200000Y-95850000D03*
X72100000Y-95850000D03*
G04 #@! TD*
G04 #@! TO.C,D6*
X72100000Y-97800000D03*
X74200000Y-97800000D03*
G04 #@! TD*
G04 #@! TO.C,D7*
X74200000Y-99750000D03*
X72100000Y-99750000D03*
G04 #@! TD*
G04 #@! TO.C,D8*
X74200000Y-101750000D03*
X72100000Y-101750000D03*
G04 #@! TD*
D21*
G04 #@! TO.C,F1*
X81450000Y-63400000D03*
X83850000Y-63400000D03*
G04 #@! TD*
D22*
G04 #@! TO.C,L1*
X149850000Y-90539000D03*
X149850000Y-88761000D03*
G04 #@! TD*
D23*
G04 #@! TO.C,L2*
X131050000Y-109375000D03*
X131050000Y-104325000D03*
G04 #@! TD*
D24*
G04 #@! TO.C,R1*
X155350000Y-108800000D03*
X155350000Y-106900000D03*
G04 #@! TD*
D25*
G04 #@! TO.C,R2*
X138300000Y-89850000D03*
X140200000Y-89850000D03*
G04 #@! TD*
D24*
G04 #@! TO.C,R3*
X141150000Y-94050000D03*
X141150000Y-95950000D03*
G04 #@! TD*
D25*
G04 #@! TO.C,R4*
X135944290Y-112409181D03*
X134044290Y-112409181D03*
G04 #@! TD*
G04 #@! TO.C,R5*
X136950000Y-89850000D03*
X135050000Y-89850000D03*
G04 #@! TD*
G04 #@! TO.C,R6*
X137344291Y-112409182D03*
X139244291Y-112409182D03*
G04 #@! TD*
D24*
G04 #@! TO.C,R7*
X139500000Y-80200000D03*
X139500000Y-82100000D03*
G04 #@! TD*
G04 #@! TO.C,R8*
X133800000Y-84050000D03*
X133800000Y-85950000D03*
G04 #@! TD*
D25*
G04 #@! TO.C,R9*
X115850000Y-97950000D03*
X117750000Y-97950000D03*
G04 #@! TD*
G04 #@! TO.C,R10*
X117750000Y-99900000D03*
X115850000Y-99900000D03*
G04 #@! TD*
G04 #@! TO.C,R11*
X119150000Y-83450000D03*
X117250000Y-83450000D03*
G04 #@! TD*
D24*
G04 #@! TO.C,R12*
X126500000Y-100750000D03*
X126500000Y-98850000D03*
G04 #@! TD*
D25*
G04 #@! TO.C,R13*
X94700000Y-79200000D03*
X96600000Y-79200000D03*
G04 #@! TD*
G04 #@! TO.C,R14*
X94448246Y-91637992D03*
X96348246Y-91637992D03*
G04 #@! TD*
G04 #@! TO.C,R15*
X79550000Y-92300000D03*
X81450000Y-92300000D03*
G04 #@! TD*
G04 #@! TO.C,R16*
X102698246Y-87337992D03*
X100798246Y-87337992D03*
G04 #@! TD*
G04 #@! TO.C,R17*
X81450000Y-94300000D03*
X79550000Y-94300000D03*
G04 #@! TD*
D24*
G04 #@! TO.C,R18*
X97250000Y-93600000D03*
X97250000Y-95500000D03*
G04 #@! TD*
G04 #@! TO.C,R19*
X88500000Y-93900000D03*
X88500000Y-95800000D03*
G04 #@! TD*
D25*
G04 #@! TO.C,R20*
X100748246Y-85187992D03*
X102648246Y-85187992D03*
G04 #@! TD*
G04 #@! TO.C,R21*
X81450000Y-96300000D03*
X79550000Y-96300000D03*
G04 #@! TD*
G04 #@! TO.C,R23*
X102648246Y-82487992D03*
X100748246Y-82487992D03*
G04 #@! TD*
G04 #@! TO.C,R24*
X79550000Y-98300000D03*
X81450000Y-98300000D03*
G04 #@! TD*
G04 #@! TO.C,R25*
X100748246Y-80237992D03*
X102648246Y-80237992D03*
G04 #@! TD*
G04 #@! TO.C,R26*
X100748246Y-78237992D03*
X102648246Y-78237992D03*
G04 #@! TD*
G04 #@! TO.C,R27*
X81450000Y-100300000D03*
X79550000Y-100300000D03*
G04 #@! TD*
D26*
G04 #@! TO.C,SW4*
X81600000Y-57800000D03*
X83500000Y-57800000D03*
D27*
X80950000Y-59400000D03*
X84150000Y-59400000D03*
G04 #@! TD*
D28*
G04 #@! TO.C,U3*
X137250000Y-107850000D03*
X138200000Y-107850000D03*
X136300000Y-107850000D03*
X136300000Y-110050000D03*
X137250000Y-110050000D03*
X138200000Y-110050000D03*
G04 #@! TD*
D29*
G04 #@! TO.C,U4*
X146349999Y-121050000D03*
X148649999Y-121050000D03*
X150949999Y-121050000D03*
D30*
X148649999Y-114750000D03*
G04 #@! TD*
D28*
G04 #@! TO.C,U5*
X136350000Y-79750000D03*
X137300000Y-79750000D03*
X135400000Y-79750000D03*
X135400000Y-81950000D03*
X136350000Y-81950000D03*
X137300000Y-81950000D03*
G04 #@! TD*
G04 #@! TO.C,U6*
X137750000Y-86250000D03*
X136800000Y-86250000D03*
X135850000Y-86250000D03*
X135850000Y-84050000D03*
X137750000Y-84050000D03*
X136800000Y-84050000D03*
G04 #@! TD*
D31*
G04 #@! TO.C,U10*
X91443246Y-94437992D03*
X92713246Y-94437992D03*
X95253246Y-94437992D03*
X95253246Y-99337992D03*
X93983246Y-99337992D03*
X92713246Y-99337992D03*
X91443246Y-99337992D03*
X93983246Y-94437992D03*
G04 #@! TD*
D32*
G04 #@! TO.C,U2*
X139455000Y-98150000D03*
D33*
X137550000Y-95400000D03*
D32*
X138185000Y-98150000D03*
X136915000Y-98150000D03*
X135645000Y-98150000D03*
X135645000Y-92650000D03*
X136915000Y-92650000D03*
X138185000Y-92650000D03*
X139455000Y-92650000D03*
G04 #@! TD*
D34*
G04 #@! TO.C,U7*
X123362992Y-77351754D03*
X122712992Y-77351754D03*
X122062992Y-77351754D03*
X121412992Y-77351754D03*
X120762992Y-77351754D03*
X120112992Y-77351754D03*
X119462992Y-77351754D03*
X118812992Y-77351754D03*
X118162992Y-77351754D03*
X117512992Y-77351754D03*
X117512992Y-71751754D03*
X118162992Y-71751754D03*
X118812992Y-71751754D03*
X119462992Y-71751754D03*
X120112992Y-71751754D03*
X120762992Y-71751754D03*
X121412992Y-71751754D03*
X122062992Y-71751754D03*
X122712992Y-71751754D03*
X123362992Y-71751754D03*
G04 #@! TD*
D35*
G04 #@! TO.C,U8*
X124367123Y-95254501D03*
X110397123Y-85854501D03*
X123097123Y-95254501D03*
X121827123Y-95254501D03*
X120557123Y-95254501D03*
X119287123Y-95254501D03*
X118017123Y-95254501D03*
X116747123Y-95254501D03*
X115477123Y-95254501D03*
X114207123Y-95254501D03*
X112937123Y-95254501D03*
X111667123Y-95254501D03*
X110397123Y-95254501D03*
X111667123Y-85854501D03*
X112937123Y-85854501D03*
X114207123Y-85854501D03*
X115477123Y-85854501D03*
X116747123Y-85854501D03*
X118017123Y-85854501D03*
X119287123Y-85854501D03*
X120557123Y-85854501D03*
X121827123Y-85854501D03*
X123097123Y-85854501D03*
X124367123Y-85854501D03*
G04 #@! TD*
D36*
G04 #@! TO.C,U9*
X87950000Y-79340000D03*
X87950000Y-80610000D03*
X87950000Y-81880000D03*
X87950000Y-83150000D03*
X87950000Y-84420000D03*
X87950000Y-85690000D03*
X87950000Y-86960000D03*
X82550000Y-86960000D03*
X82550000Y-85690000D03*
X82550000Y-84420000D03*
X82550000Y-83150000D03*
X82550000Y-81880000D03*
X82550000Y-80610000D03*
X82550000Y-79340000D03*
G04 #@! TD*
D37*
G04 #@! TO.C,SW1*
X72150000Y-61700000D03*
X72150000Y-64200000D03*
X72150000Y-66700000D03*
X77650000Y-66700000D03*
X77650000Y-64200000D03*
X77650000Y-61700000D03*
G04 #@! TD*
D16*
G04 #@! TO.C,C18*
X133650000Y-93850000D03*
X133650000Y-91850000D03*
G04 #@! TD*
D38*
G04 #@! TO.C,J2*
X87375000Y-74750000D03*
X87375000Y-68050000D03*
D39*
X81625000Y-72400000D03*
X81625000Y-70400000D03*
G04 #@! TD*
D40*
G04 #@! TO.C,U1*
X149950000Y-102650000D03*
X149950000Y-103600000D03*
X149950000Y-104550000D03*
X147650000Y-104550000D03*
X147650000Y-103600000D03*
X147650000Y-102650000D03*
G04 #@! TD*
D13*
G04 #@! TO.C,REF\002A\002A*
X65900000Y-65400000D03*
G04 #@! TD*
G04 #@! TO.C,REF\002A\002A*
X66000000Y-107700000D03*
G04 #@! TD*
G04 #@! TO.C,REF\002A\002A*
X159450000Y-117100000D03*
G04 #@! TD*
G04 #@! TO.C,REF\002A\002A*
X159700000Y-74600000D03*
G04 #@! TD*
G04 #@! TO.C,REF\002A\002A*
X111100000Y-60300000D03*
G04 #@! TD*
D41*
G04 #@! TO.C,SW2*
X65050000Y-93200000D03*
X65050000Y-85200000D03*
G04 #@! TD*
G04 #@! TO.C,SW3*
X65100000Y-74600000D03*
X65100000Y-82600000D03*
G04 #@! TD*
G04 #@! TO.C,SW6*
X65000000Y-95950000D03*
X65000000Y-103950000D03*
G04 #@! TD*
D24*
G04 #@! TO.C,R22*
X141150000Y-99100000D03*
X141150000Y-97200000D03*
G04 #@! TD*
D42*
G04 #@! TO.C,SW7*
X143895001Y-93074999D03*
X143895001Y-100374999D03*
X146105001Y-100374999D03*
X146105001Y-93074999D03*
D43*
X143245001Y-98974999D03*
X143245001Y-97474999D03*
X143245001Y-94474999D03*
D44*
X145005001Y-98224999D03*
X145005001Y-95224999D03*
G04 #@! TD*
D45*
G04 #@! TO.C,TP1*
X140050000Y-103300000D03*
G04 #@! TD*
G04 #@! TO.C,TP2*
X152050000Y-100050000D03*
G04 #@! TD*
G04 #@! TO.C,TP3*
X149900000Y-75300000D03*
G04 #@! TD*
G04 #@! TO.C,TP4*
X153050000Y-114300000D03*
G04 #@! TD*
G04 #@! TO.C,TP5*
X150100000Y-83400000D03*
G04 #@! TD*
G04 #@! TO.C,TP6*
X72950000Y-73650000D03*
G04 #@! TD*
G04 #@! TO.C,TP7*
X76900000Y-73650000D03*
G04 #@! TD*
G04 #@! TO.C,TP8*
X142800000Y-103250000D03*
G04 #@! TD*
G04 #@! TO.C,TP9*
X151850000Y-96650000D03*
G04 #@! TD*
G04 #@! TO.C,TP10*
X97350000Y-89100000D03*
G04 #@! TD*
G04 #@! TO.C,TP11*
X104100000Y-87300000D03*
G04 #@! TD*
G04 #@! TO.C,TP12*
X104000000Y-85200000D03*
G04 #@! TD*
G04 #@! TO.C,TP13*
X86650000Y-99900000D03*
G04 #@! TD*
G04 #@! TO.C,TP14*
X77600000Y-91250000D03*
G04 #@! TD*
G04 #@! TO.C,TP15*
X104050000Y-82500000D03*
G04 #@! TD*
G04 #@! TO.C,TP16*
X92650000Y-79250000D03*
G04 #@! TD*
G04 #@! TO.C,TP17*
X90250000Y-78650000D03*
G04 #@! TD*
G04 #@! TO.C,TP18*
X88300000Y-77250000D03*
G04 #@! TD*
G04 #@! TO.C,TP19*
X155250000Y-75300000D03*
G04 #@! TD*
G04 #@! TO.C,TP20*
X143700000Y-81350000D03*
G04 #@! TD*
G04 #@! TO.C,TP21*
X147650000Y-81550000D03*
G04 #@! TD*
G04 #@! TO.C,TP22*
X119100000Y-102900000D03*
G04 #@! TD*
G04 #@! TO.C,TP23*
X114800000Y-102450000D03*
G04 #@! TD*
G04 #@! TO.C,TP24*
X114000000Y-79450000D03*
G04 #@! TD*
G04 #@! TO.C,TP25*
X85950000Y-58700000D03*
G04 #@! TD*
G04 #@! TO.C,TP26*
X93650000Y-61350000D03*
G04 #@! TD*
G04 #@! TO.C,TP27*
X144600000Y-106700000D03*
G04 #@! TD*
G04 #@! TO.C,TP28*
X104650000Y-94200000D03*
G04 #@! TD*
G04 #@! TO.C,TP29*
X152300000Y-75300000D03*
G04 #@! TD*
G04 #@! TO.C,TP30*
X89400000Y-90350000D03*
G04 #@! TD*
D46*
G04 #@! TO.C,D9*
X69100000Y-70700000D03*
X71300000Y-70700000D03*
G04 #@! TD*
D25*
G04 #@! TO.C,R28*
X104250000Y-68900000D03*
X106150000Y-68900000D03*
G04 #@! TD*
G04 #@! TO.C,R29*
X107200000Y-59000000D03*
X105300000Y-59000000D03*
G04 #@! TD*
D26*
G04 #@! TO.C,SW5*
X93100000Y-57650000D03*
X95000000Y-57650000D03*
D27*
X92450000Y-59250000D03*
X95650000Y-59250000D03*
G04 #@! TD*
M02*
