G04 #@! TF.GenerationSoftware,KiCad,Pcbnew,(5.0.0-rc3-dev-5-g0013e0cad)*
G04 #@! TF.CreationDate,2018-07-11T14:46:06+01:00*
G04 #@! TF.ProjectId,Pride Badge,50726964652042616467652E6B696361,rev?*
G04 #@! TF.SameCoordinates,Original*
G04 #@! TF.FileFunction,Paste,Bot*
G04 #@! TF.FilePolarity,Positive*
%FSLAX46Y46*%
G04 Gerber Fmt 4.6, Leading zero omitted, Abs format (unit mm)*
G04 Created by KiCad (PCBNEW (5.0.0-rc3-dev-5-g0013e0cad)) date 07/11/18 14:46:06*
%MOMM*%
%LPD*%
G01*
G04 APERTURE LIST*
%ADD10R,1.350000X0.400000*%
%ADD11R,3.050000X1.270000*%
%ADD12R,0.850000X0.650000*%
%ADD13R,1.250000X1.000000*%
%ADD14R,1.000000X1.250000*%
%ADD15R,2.500000X1.800000*%
%ADD16R,1.700000X3.300000*%
%ADD17R,0.800000X0.900000*%
%ADD18R,1.140000X2.030000*%
%ADD19R,1.778000X1.016000*%
%ADD20R,2.200000X2.550000*%
%ADD21R,1.300000X0.700000*%
%ADD22R,0.700000X1.300000*%
%ADD23R,1.000000X1.500000*%
%ADD24R,0.650000X1.060000*%
%ADD25R,1.500000X2.200000*%
%ADD26R,3.800000X2.200000*%
%ADD27R,0.600000X2.000000*%
%ADD28R,0.650000X1.750000*%
%ADD29R,3.300000X2.410000*%
%ADD30R,0.300000X1.600000*%
%ADD31R,1.500000X0.550000*%
%ADD32R,2.500000X1.200000*%
%ADD33R,3.400000X1.500000*%
%ADD34R,3.500000X1.000000*%
%ADD35R,1.200000X0.600000*%
%ADD36R,2.000000X1.700000*%
%ADD37R,0.800000X1.000000*%
%ADD38R,1.500000X0.700000*%
%ADD39R,1.200000X1.200000*%
G04 APERTURE END LIST*
D10*
G04 #@! TO.C,J1*
X158387460Y-103399100D03*
X158387460Y-104049100D03*
X158387460Y-104699100D03*
X158387460Y-105349100D03*
X158387460Y-105999100D03*
G04 #@! TD*
D11*
G04 #@! TO.C,J3*
X160425000Y-83860000D03*
X157375000Y-81320000D03*
X157375000Y-86400000D03*
X160425000Y-88940000D03*
X157375000Y-91480000D03*
G04 #@! TD*
D12*
G04 #@! TO.C,D2*
X158475000Y-96175000D03*
X159725000Y-96175000D03*
X159725000Y-97025000D03*
X158475000Y-97025000D03*
G04 #@! TD*
D13*
G04 #@! TO.C,C1*
X147550000Y-90700000D03*
X147550000Y-88700000D03*
G04 #@! TD*
G04 #@! TO.C,C2*
X145550000Y-88650000D03*
X145550000Y-90650000D03*
G04 #@! TD*
G04 #@! TO.C,C3*
X143448246Y-88687992D03*
X143448246Y-90687992D03*
G04 #@! TD*
D14*
G04 #@! TO.C,C4*
X138300000Y-105550000D03*
X136300000Y-105550000D03*
G04 #@! TD*
G04 #@! TO.C,C5*
X136900000Y-115600000D03*
X138900000Y-115600000D03*
G04 #@! TD*
G04 #@! TO.C,C6*
X146150000Y-112250000D03*
X148150000Y-112250000D03*
G04 #@! TD*
G04 #@! TO.C,C7*
X152750000Y-112250000D03*
X150750000Y-112250000D03*
G04 #@! TD*
D13*
G04 #@! TO.C,C8*
X139650000Y-84300000D03*
X139650000Y-86300000D03*
G04 #@! TD*
D14*
G04 #@! TO.C,C9*
X113850000Y-77350000D03*
X115850000Y-77350000D03*
G04 #@! TD*
G04 #@! TO.C,C10*
X113837992Y-71750000D03*
X115837992Y-71750000D03*
G04 #@! TD*
G04 #@! TO.C,C11*
X113837992Y-75451754D03*
X115837992Y-75451754D03*
G04 #@! TD*
G04 #@! TO.C,C12*
X113837992Y-73600000D03*
X115837992Y-73600000D03*
G04 #@! TD*
G04 #@! TO.C,C13*
X115850000Y-69900000D03*
X113850000Y-69900000D03*
G04 #@! TD*
G04 #@! TO.C,C14*
X122600000Y-99800000D03*
X120600000Y-99800000D03*
G04 #@! TD*
G04 #@! TO.C,C15*
X120600000Y-97900000D03*
X122600000Y-97900000D03*
G04 #@! TD*
D13*
G04 #@! TO.C,C16*
X88600000Y-97800000D03*
X88600000Y-99800000D03*
G04 #@! TD*
G04 #@! TO.C,C17*
X97250000Y-97550000D03*
X97250000Y-99550000D03*
G04 #@! TD*
D15*
G04 #@! TO.C,D1*
X131500000Y-113100000D03*
X127500000Y-113100000D03*
G04 #@! TD*
D16*
G04 #@! TO.C,D3*
X94898246Y-87837992D03*
X94898246Y-82337992D03*
G04 #@! TD*
D17*
G04 #@! TO.C,D4*
X72100000Y-93900000D03*
X74200000Y-93900000D03*
G04 #@! TD*
G04 #@! TO.C,D5*
X74200000Y-95850000D03*
X72100000Y-95850000D03*
G04 #@! TD*
G04 #@! TO.C,D6*
X72100000Y-97800000D03*
X74200000Y-97800000D03*
G04 #@! TD*
G04 #@! TO.C,D7*
X74200000Y-99750000D03*
X72100000Y-99750000D03*
G04 #@! TD*
G04 #@! TO.C,D8*
X74200000Y-101750000D03*
X72100000Y-101750000D03*
G04 #@! TD*
D18*
G04 #@! TO.C,F1*
X81450000Y-63400000D03*
X83850000Y-63400000D03*
G04 #@! TD*
D19*
G04 #@! TO.C,L1*
X149850000Y-90539000D03*
X149850000Y-88761000D03*
G04 #@! TD*
D20*
G04 #@! TO.C,L2*
X131050000Y-109375000D03*
X131050000Y-104325000D03*
G04 #@! TD*
D21*
G04 #@! TO.C,R1*
X155350000Y-108800000D03*
X155350000Y-106900000D03*
G04 #@! TD*
D22*
G04 #@! TO.C,R2*
X138300000Y-89850000D03*
X140200000Y-89850000D03*
G04 #@! TD*
D21*
G04 #@! TO.C,R3*
X141150000Y-94050000D03*
X141150000Y-95950000D03*
G04 #@! TD*
D22*
G04 #@! TO.C,R4*
X135944290Y-112409181D03*
X134044290Y-112409181D03*
G04 #@! TD*
G04 #@! TO.C,R5*
X136950000Y-89850000D03*
X135050000Y-89850000D03*
G04 #@! TD*
G04 #@! TO.C,R6*
X137344291Y-112409182D03*
X139244291Y-112409182D03*
G04 #@! TD*
D21*
G04 #@! TO.C,R7*
X139500000Y-80200000D03*
X139500000Y-82100000D03*
G04 #@! TD*
G04 #@! TO.C,R8*
X133800000Y-84050000D03*
X133800000Y-85950000D03*
G04 #@! TD*
D22*
G04 #@! TO.C,R9*
X115850000Y-97950000D03*
X117750000Y-97950000D03*
G04 #@! TD*
G04 #@! TO.C,R10*
X117750000Y-99900000D03*
X115850000Y-99900000D03*
G04 #@! TD*
G04 #@! TO.C,R11*
X119150000Y-83450000D03*
X117250000Y-83450000D03*
G04 #@! TD*
D21*
G04 #@! TO.C,R12*
X126500000Y-100750000D03*
X126500000Y-98850000D03*
G04 #@! TD*
D22*
G04 #@! TO.C,R13*
X94700000Y-79200000D03*
X96600000Y-79200000D03*
G04 #@! TD*
G04 #@! TO.C,R14*
X94448246Y-91637992D03*
X96348246Y-91637992D03*
G04 #@! TD*
G04 #@! TO.C,R15*
X79550000Y-92300000D03*
X81450000Y-92300000D03*
G04 #@! TD*
G04 #@! TO.C,R16*
X102698246Y-87337992D03*
X100798246Y-87337992D03*
G04 #@! TD*
G04 #@! TO.C,R17*
X81450000Y-94300000D03*
X79550000Y-94300000D03*
G04 #@! TD*
D21*
G04 #@! TO.C,R18*
X97250000Y-93600000D03*
X97250000Y-95500000D03*
G04 #@! TD*
G04 #@! TO.C,R19*
X88500000Y-93900000D03*
X88500000Y-95800000D03*
G04 #@! TD*
D22*
G04 #@! TO.C,R20*
X100748246Y-85187992D03*
X102648246Y-85187992D03*
G04 #@! TD*
G04 #@! TO.C,R21*
X81450000Y-96300000D03*
X79550000Y-96300000D03*
G04 #@! TD*
G04 #@! TO.C,R23*
X102648246Y-82487992D03*
X100748246Y-82487992D03*
G04 #@! TD*
G04 #@! TO.C,R24*
X79550000Y-98300000D03*
X81450000Y-98300000D03*
G04 #@! TD*
G04 #@! TO.C,R25*
X100748246Y-80237992D03*
X102648246Y-80237992D03*
G04 #@! TD*
G04 #@! TO.C,R26*
X100748246Y-78237992D03*
X102648246Y-78237992D03*
G04 #@! TD*
G04 #@! TO.C,R27*
X81450000Y-100300000D03*
X79550000Y-100300000D03*
G04 #@! TD*
D23*
G04 #@! TO.C,SW4*
X80950000Y-59400000D03*
X84150000Y-59400000D03*
G04 #@! TD*
D24*
G04 #@! TO.C,U3*
X137250000Y-107850000D03*
X138200000Y-107850000D03*
X136300000Y-107850000D03*
X136300000Y-110050000D03*
X137250000Y-110050000D03*
X138200000Y-110050000D03*
G04 #@! TD*
D25*
G04 #@! TO.C,U4*
X146349999Y-121050000D03*
X148649999Y-121050000D03*
X150949999Y-121050000D03*
D26*
X148649999Y-114750000D03*
G04 #@! TD*
D24*
G04 #@! TO.C,U5*
X136350000Y-79750000D03*
X137300000Y-79750000D03*
X135400000Y-79750000D03*
X135400000Y-81950000D03*
X136350000Y-81950000D03*
X137300000Y-81950000D03*
G04 #@! TD*
G04 #@! TO.C,U6*
X137750000Y-86250000D03*
X136800000Y-86250000D03*
X135850000Y-86250000D03*
X135850000Y-84050000D03*
X137750000Y-84050000D03*
X136800000Y-84050000D03*
G04 #@! TD*
D27*
G04 #@! TO.C,U10*
X91443246Y-94437992D03*
X92713246Y-94437992D03*
X95253246Y-94437992D03*
X95253246Y-99337992D03*
X93983246Y-99337992D03*
X92713246Y-99337992D03*
X91443246Y-99337992D03*
X93983246Y-94437992D03*
G04 #@! TD*
D28*
G04 #@! TO.C,U2*
X139455000Y-98150000D03*
D29*
X137550000Y-95400000D03*
D28*
X138185000Y-98150000D03*
X136915000Y-98150000D03*
X135645000Y-98150000D03*
X135645000Y-92650000D03*
X136915000Y-92650000D03*
X138185000Y-92650000D03*
X139455000Y-92650000D03*
G04 #@! TD*
D30*
G04 #@! TO.C,U7*
X123362992Y-77351754D03*
X122712992Y-77351754D03*
X122062992Y-77351754D03*
X121412992Y-77351754D03*
X120762992Y-77351754D03*
X120112992Y-77351754D03*
X119462992Y-77351754D03*
X118812992Y-77351754D03*
X118162992Y-77351754D03*
X117512992Y-77351754D03*
X117512992Y-71751754D03*
X118162992Y-71751754D03*
X118812992Y-71751754D03*
X119462992Y-71751754D03*
X120112992Y-71751754D03*
X120762992Y-71751754D03*
X121412992Y-71751754D03*
X122062992Y-71751754D03*
X122712992Y-71751754D03*
X123362992Y-71751754D03*
G04 #@! TD*
D27*
G04 #@! TO.C,U8*
X124367123Y-95254501D03*
X110397123Y-85854501D03*
X123097123Y-95254501D03*
X121827123Y-95254501D03*
X120557123Y-95254501D03*
X119287123Y-95254501D03*
X118017123Y-95254501D03*
X116747123Y-95254501D03*
X115477123Y-95254501D03*
X114207123Y-95254501D03*
X112937123Y-95254501D03*
X111667123Y-95254501D03*
X110397123Y-95254501D03*
X111667123Y-85854501D03*
X112937123Y-85854501D03*
X114207123Y-85854501D03*
X115477123Y-85854501D03*
X116747123Y-85854501D03*
X118017123Y-85854501D03*
X119287123Y-85854501D03*
X120557123Y-85854501D03*
X121827123Y-85854501D03*
X123097123Y-85854501D03*
X124367123Y-85854501D03*
G04 #@! TD*
D31*
G04 #@! TO.C,U9*
X87950000Y-79340000D03*
X87950000Y-80610000D03*
X87950000Y-81880000D03*
X87950000Y-83150000D03*
X87950000Y-84420000D03*
X87950000Y-85690000D03*
X87950000Y-86960000D03*
X82550000Y-86960000D03*
X82550000Y-85690000D03*
X82550000Y-84420000D03*
X82550000Y-83150000D03*
X82550000Y-81880000D03*
X82550000Y-80610000D03*
X82550000Y-79340000D03*
G04 #@! TD*
D32*
G04 #@! TO.C,SW1*
X72150000Y-61700000D03*
X72150000Y-64200000D03*
X72150000Y-66700000D03*
X77650000Y-66700000D03*
X77650000Y-64200000D03*
X77650000Y-61700000D03*
G04 #@! TD*
D13*
G04 #@! TO.C,C18*
X133650000Y-93850000D03*
X133650000Y-91850000D03*
G04 #@! TD*
D33*
G04 #@! TO.C,J2*
X87375000Y-74750000D03*
X87375000Y-68050000D03*
D34*
X81625000Y-72400000D03*
X81625000Y-70400000D03*
G04 #@! TD*
D35*
G04 #@! TO.C,U1*
X149950000Y-102650000D03*
X149950000Y-103600000D03*
X149950000Y-104550000D03*
X147650000Y-104550000D03*
X147650000Y-103600000D03*
X147650000Y-102650000D03*
G04 #@! TD*
D36*
G04 #@! TO.C,SW2*
X65050000Y-93200000D03*
X65050000Y-85200000D03*
G04 #@! TD*
G04 #@! TO.C,SW3*
X65100000Y-74600000D03*
X65100000Y-82600000D03*
G04 #@! TD*
G04 #@! TO.C,SW6*
X65000000Y-95950000D03*
X65000000Y-103950000D03*
G04 #@! TD*
D21*
G04 #@! TO.C,R22*
X141150000Y-99100000D03*
X141150000Y-97200000D03*
G04 #@! TD*
D37*
G04 #@! TO.C,SW7*
X143895001Y-93074999D03*
X143895001Y-100374999D03*
X146105001Y-100374999D03*
X146105001Y-93074999D03*
D38*
X143245001Y-98974999D03*
X143245001Y-97474999D03*
X143245001Y-94474999D03*
G04 #@! TD*
D39*
G04 #@! TO.C,D9*
X69100000Y-70700000D03*
X71300000Y-70700000D03*
G04 #@! TD*
D22*
G04 #@! TO.C,R28*
X104250000Y-68900000D03*
X106150000Y-68900000D03*
G04 #@! TD*
G04 #@! TO.C,R29*
X107200000Y-59000000D03*
X105300000Y-59000000D03*
G04 #@! TD*
D23*
G04 #@! TO.C,SW5*
X92450000Y-59250000D03*
X95650000Y-59250000D03*
G04 #@! TD*
M02*
